<svg xmlns="http://www.w3.org/2000/svg" viewBox="0 0 32 32" width="32" height="32">
  <defs>
    <linearGradient id="aiGradient" x1="0%" y1="0%" x2="100%" y2="100%">
      <stop offset="0%" style="stop-color:#f093fb;stop-opacity:1" />
      <stop offset="100%" style="stop-color:#f5576c;stop-opacity:1" />
    </linearGradient>
  </defs>
  
  <!-- Cerveau IA -->
  <path d="M16 4 C22 4 26 8 26 14 C26 16 25 18 24 19 C25 20 26 22 26 24 C26 27 23 29 20 29 L12 29 C9 29 6 27 6 24 C6 22 7 20 8 19 C7 18 6 16 6 14 C6 8 10 4 16 4 Z" 
        fill="url(#aiGradient)" stroke="white" stroke-width="1"/>
  
  <!-- Connexions neuronales -->
  <circle cx="12" cy="12" r="1.5" fill="white" opacity="0.8"/>
  <circle cx="20" cy="12" r="1.5" fill="white" opacity="0.8"/>
  <circle cx="16" cy="18" r="1.5" fill="white" opacity="0.8"/>
  <circle cx="10" cy="20" r="1" fill="white" opacity="0.6"/>
  <circle cx="22" cy="20" r="1" fill="white" opacity="0.6"/>
  
  <!-- Lignes de connexion -->
  <line x1="12" y1="12" x2="16" y2="18" stroke="white" stroke-width="0.5" opacity="0.5"/>
  <line x1="20" y1="12" x2="16" y2="18" stroke="white" stroke-width="0.5" opacity="0.5"/>
  <line x1="10" y1="20" x2="16" y2="18" stroke="white" stroke-width="0.5" opacity="0.5"/>
  <line x1="22" y1="20" x2="16" y2="18" stroke="white" stroke-width="0.5" opacity="0.5"/>
</svg>
